<?xml version="1.0" encoding="utf-8"?>
<!-- Generator: Adobe Illustrator 17.1.0, SVG Export Plug-In . SVG Version: 6.00 Build 0)  -->
<!DOCTYPE svg PUBLIC "-//W3C//DTD SVG 1.1//EN" "http://www.w3.org/Graphics/SVG/1.1/DTD/svg11.dtd">
<svg version="1.1" id="Layer_1" xmlns="http://www.w3.org/2000/svg" xmlns:xlink="http://www.w3.org/1999/xlink" x="0px" y="0px"
	 width="741px" height="163.4px" viewBox="0 0 741 163.4" enable-background="new 0 0 741 163.4" xml:space="preserve">
<g>
	<g>
		<g>
			<path d="M489,59.7h12.6v11.5h0.3c3-4.4,7-7.7,12-9.9c5-2.2,10.3-3.3,15.7-3.3c5.1,0,10,1,14.6,2.9c4.6,1.9,8.6,4.5,12.1,7.9
				c3.4,3.4,6.2,7.3,8.2,11.9c2,4.6,3,9.5,3,14.7c0,5.8-1,11.1-3.1,15.8c-2.1,4.8-4.9,8.8-8.5,12.2c-3.5,3.4-7.6,6.1-12.3,8
				c-4.7,1.9-9.5,2.9-14.5,2.9c-6.3,0-11.8-1.2-16.3-3.6c-4.5-2.4-8.1-5.5-10.8-9.3h-0.3v42H489V59.7z M554.1,95.6
				c0-3.1-0.6-6.1-1.7-9.2c-1.2-3-2.9-5.8-5.2-8.3c-2.3-2.5-5.1-4.5-8.4-6c-3.3-1.5-7.1-2.3-11.4-2.3c-3.5,0-6.7,0.7-9.8,2.1
				c-3.1,1.4-5.8,3.3-8.2,5.7c-2.4,2.4-4.3,5.2-5.7,8.4s-2.1,6.6-2.1,10.3c0,3.6,0.7,7.1,2,10.3c1.4,3.2,3.2,6,5.6,8.4
				c2.4,2.4,5.2,4.2,8.3,5.6c3.2,1.4,6.6,2,10.2,2c3.4,0,6.6-0.6,9.7-1.9c3.1-1.3,5.9-3,8.4-5.3c2.5-2.3,4.5-5.1,5.9-8.5
				C553.3,103.5,554.1,99.7,554.1,95.6z"/>
			<path d="M632.8,83.8c0-3-0.7-5.4-2-7.3c-1.4-1.9-3.1-3.4-5.2-4.5c-2.1-1.1-4.5-1.8-7.1-2.2c-2.6-0.4-5.1-0.6-7.6-0.6
				c-6.6,0-13.3,1.7-20.1,5l-5.5-10.5c5.6-2.3,10.6-3.8,14.9-4.5c4.3-0.7,8.1-1,11.4-1c4.4,0,8.6,0.5,12.7,1.4
				c4.1,0.9,7.6,2.4,10.8,4.5c3.1,2.1,5.6,4.6,7.5,7.8c1.9,3.1,2.8,6.8,2.8,11.1v49.8h-11.8v-7.8c-3.3,3.4-6.7,5.8-10.4,7.3
				c-3.7,1.5-8,2.2-12.8,2.2c-4.5,0-8.6-0.6-12.5-1.8c-3.8-1.2-7.2-2.9-10.1-5.2c-2.9-2.2-5.2-5-6.8-8.2c-1.6-3.2-2.4-6.9-2.4-11
				c0-3.4,0.7-6.5,2.1-9.5c1.4-3,3.4-5.6,6.1-8c2.7-2.3,6-4.2,9.9-5.5c4-1.4,8.5-2,13.5-2c3.9,0,7.8,0.6,11.7,1.9
				c3.9,1.3,7.5,3.4,10.8,6.4V83.8z M633.2,108.7c0-1.8-0.4-3.5-1-5.2c-0.7-1.7-1.9-3.3-3.5-4.7c-1.6-1.4-3.8-2.5-6.4-3.4
				c-2.6-0.8-5.8-1.3-9.7-1.3c-3.8,0-7.1,0.4-9.7,1.3c-2.7,0.8-4.8,2-6.4,3.4c-1.6,1.4-2.7,3-3.4,4.7c-0.7,1.7-1,3.5-1,5.2
				c0,1.8,0.4,3.5,1,5.2s1.8,3.3,3.4,4.7c1.6,1.4,3.7,2.5,6.4,3.4c2.7,0.8,5.9,1.3,9.7,1.3c3.8,0,7-0.4,9.7-1.3
				c2.6-0.8,4.7-2,6.4-3.4c1.6-1.4,2.8-3,3.5-4.7S633.2,110.5,633.2,108.7z"/>
			<path d="M665,59.7h12.6v10.4h0.3c1.6-2.8,3.2-5,4.8-6.6c1.6-1.6,3.3-2.8,5.1-3.6c1.8-0.8,3.8-1.3,5.9-1.5
				c2.1-0.2,4.5-0.3,7.2-0.3v13.3c-2.1-0.5-4-0.7-5.7-0.7c-5.3,0-9.6,1.7-12.7,5.2c-3.2,3.5-4.8,8.6-4.8,15.3v41.4H665V59.7z"/>
			<path d="M735.2,120.9c-2.4,0-4.1-0.4-4.9-1.2c-0.8-0.8-1.3-2.2-1.3-4.1V70.8h11.6V59.7h-11.6V42.1h-12.6v17.6v11.1v13.3V117
				c0,5.6,1.2,9.6,3.6,12c2.4,2.4,6.8,3.6,13.2,3.6c1.5,0,2.9,0,4.3,0c1.4,0,2.5,0,3.4-0.1v-11.6H735.2z"/>
			<g>
				<path d="M393.6,105c-1.2-1.2-2.2-2.6-3-4.1l-12.9,31.8h14.7l8.9-22.9C398.4,108.7,395.8,107.1,393.6,105z"/>
				<path d="M432.6,26.3h-11.8l-14.6,36v22.6c0,3.2,0.6,5.5,1.6,6.6c0.1,0.1,0.3,0.2,0.4,0.3l18.5-47.9l20.1,52.2h-28.6v11.8h33.2
					l9.7,24.8h14.7L432.6,26.3z"/>
			</g>
		</g>
		<g>
			<path d="M227.2,12.8h-27V0h67.7v12.8h-27v95.3h-13.7V12.8z"/>
			<path d="M338,93.7c-5,5.6-10.2,9.7-15.6,12.2c-5.4,2.6-11.3,3.8-17.8,3.8c-6.5,0-12.3-1.1-17.3-3.3c-5-2.2-9.2-5.1-12.7-8.7
				c-3.4-3.6-6-7.8-7.7-12.4c-1.8-4.6-2.6-9.4-2.6-14.4c0-5.2,0.9-10.2,2.7-14.9c1.8-4.7,4.4-8.8,7.7-12.4c3.4-3.6,7.4-6.4,12.1-8.4
				c4.7-2,9.9-3.1,15.7-3.1c5.7,0,10.9,1,15.7,3.1c4.8,2.1,8.9,5,12.3,8.9c3.4,3.8,6.1,8.4,8,13.8c1.9,5.4,2.8,11.3,2.8,17.8h-63.4
				c0.5,3.1,1.5,6,3,8.7c1.5,2.7,3.4,5,5.7,7c2.3,1.9,4.9,3.5,8,4.6c3,1.1,6.3,1.6,10,1.6c4.6,0,8.8-1,12.8-3.1c4-2,7.6-5,10.9-8.9
				L338,93.7z M326.7,65.4c-0.3-3-1.1-5.9-2.5-8.5c-1.4-2.6-3.1-4.9-5.3-6.8c-2.1-1.9-4.6-3.4-7.5-4.4c-2.8-1-5.9-1.6-9.2-1.6
				c-3.9,0-7.3,0.6-10.2,1.9c-2.9,1.3-5.4,2.9-7.4,4.9c-2,2-3.6,4.2-4.7,6.8c-1.1,2.5-1.8,5-2.1,7.6H326.7z"/>
			<path d="M369.1,0v84.9c0,4.2,0.9,7.1,2.6,8.7c1.7,1.7,3.6,2.5,5.7,2.5h3.8v11.9h-5.3c-6,0-10.7-1.8-14.3-5.3
				c-3.6-3.5-5.3-9.1-5.3-16.9V0H369.1z"/>
			<path d="M403.2,0v84.9c0,4.2,0.9,7.1,2.6,8.7c1.7,1.7,3.6,2.5,5.7,2.5h3.8v11.9H410c-6,0-10.7-1.8-14.3-5.3
				c-3.6-3.5-5.3-9.1-5.3-16.9V0H403.2z"/>
		</g>
	</g>
	<g>
		<g>
			<path d="M138.9,76c-0.2,1.2-0.6,2.4-0.7,3.6c-1,7.6-3.3,14.7-7,21.4c-6.4,11.6-15.8,20.1-27.8,25.8c-5.2,2.5-10.6,4.3-16.2,5.2
				c-3.2,0.5-6.4,0.6-9.7,0.2c-5.9-0.6-11.3-2.5-16.2-5.8c-6.8-4.6-10.8-10.9-12.6-18.9c-0.9-4.2-0.8-8.4-0.5-12.5
				c0.2-3.8,1.6-7.4,3.3-10.9c2.8-5.7,6.3-10.9,10.1-16c5.5-7.4,11.4-14.5,17.6-21.3c0.5-0.6,1-1.2,1.5-1.7c0.1,0.1,0.3,0.2,0.4,0.3
				c-0.2,0.6-0.3,1.2-0.5,1.7c-1.7,3.2-3.6,6.2-6,9c-6.7,7.9-12.8,16.2-17.1,25.6c-1.5,3.4-2.8,6.8-3.6,10.5c-0.6,3-1.2,6-0.8,9.1
				c0.7,5.3,2.5,10.1,6.3,13.9c3.5,3.4,7.4,6.3,12,8.1c5,1.9,10.2,2,15.5,1.2c3.9-0.6,7.7-1.6,11.3-3.1c6.9-2.9,12.8-7.1,17.9-12.7
				c6.3-6.9,10.5-14.9,12.8-23.8c1.3-5,1.7-10.1,1.7-15.2c0-13.5-4.3-25.7-12.4-36.4c-8.8-11.6-20.4-19.1-34.5-22.5
				c-4.2-1-8.4-1.7-12.8-1.4c-0.9,0-1.8,0-2.7,0c-8.8-0.3-17.2,1.9-25,5.8C25.9,23.4,14.9,37.1,10,55.7c-1.3,4.8-1.9,9.8-1.8,14.9
				c0.1,3,0.6,6.1,0.9,9.1c0.8,6.6,3,12.8,6.1,18.6c3.6,6.9,8.3,13,14.3,18.1c3,2.6,6.3,5,9.8,7c0.6,0.3,1.1,0.7,1.7,1
				c1.3,0.7,2.2,3.3,1.4,5c-0.8,1.7-2.6,2.7-4.5,2.1c-1.1-0.3-2.1-0.7-3.1-1.2c-6.9-4-12.9-9.1-18.1-15.2
				C10.1,107.6,5.5,99,2.8,89.4c-1-3.4-1.5-6.8-2.1-10.3C-0.1,74.8,0,70.6,0,66.4c0-1.6,0.4-3.3,0.7-4.9c0.3-2.1,0.7-4.2,1-6.2
				c1-5.8,3.1-11.2,5.7-16.4c3.9-7.8,9.1-14.6,15.6-20.4c8-7.2,17.2-12.2,27.6-15.2c3.7-1.1,7.5-1.7,11.4-2.2
				c2.3-0.3,4.6-0.6,6.9-0.7c3.6-0.2,7.2,0.5,10.7,1c4.5,0.6,8.9,1.7,13.1,3.2c8,2.9,15.3,7,21.7,12.6c11.4,9.7,18.8,21.9,22.5,36.4
				c0.8,3.1,1.1,6.2,1.7,9.3c0.1,0.5,0.2,0.9,0.4,1.3C138.9,68.2,138.9,72.1,138.9,76z"/>
			<path d="M83,85.4c-0.6,0.5-1,0.9-1.5,1.2c-3.9,2.2-7.7,4.5-11.7,6.6c-2.3,1.2-4.8,1.7-7.5,1C60.9,93.8,60,93,59,91.6
				c3.2-1.3,6.4-2.4,9.1-5c-0.4-0.4-0.7-0.9-1.2-1.2c-1.7-1.2-3.8-1.6-5.8-2c-0.4-0.1-0.7-0.3-1.2-0.4c0.6-1.3,1.6-1.9,2.7-2.4
				c3.1-1.5,6.3-1.7,9.6-0.8c3.3,0.9,6.4,2.4,9.3,4.2C82,84.4,82.4,84.9,83,85.4z"/>
			<path d="M51.5,78.4c-1.1-1.4-2-2.7-3-3.7c-1-1-2.2-1.9-3.9-2.4c-0.2,0.5-0.5,0.9-0.6,1.4c-0.5,2.3-0.3,4.7,0.2,7
				c0.1,0.5,0.1,1,0.1,1.5c-2,0.3-3.7-0.4-4.8-2.2c-0.9-1.5-1.5-3.1-1.5-5c0-4.5,0-9.1,0-13.6c0-0.9,0-1.8,1-2.4
				c0.3,0.1,0.6,0.2,0.9,0.3c3.8,2,7.2,4.4,9.9,7.8C52,69.8,52.7,74,51.5,78.4z"/>
			<path d="M52.3,42.4c4.2,3.5,8.1,6.9,10.4,11.7c1.1,2.3,1.2,4.8,0.5,7.2c-0.2,0.7-0.7,1.3-1.1,2.2c-1.7-2.9-2.8-5.9-6.1-7.2
				c-2,2.5-1.4,5.4-2.1,8.1c-2.3-0.2-3.3-1.7-4.2-3.3c-1.3-2.3-1.2-4.8-0.6-7.2c0.7-3,1.4-5.9,2.1-8.9
				C51.4,44.2,51.9,43.5,52.3,42.4z"/>
			<path d="M90.9,67c-0.4,0.6-0.7,1.2-1.1,1.7c-2.9,2.7-5.8,5.4-9.1,7.6c-2.7,1.7-5.6,2.1-8.6,0.9c-0.5-0.2-1-0.6-1.8-1
				c0.7-0.5,1.2-0.9,1.6-1.3c1.4-1.1,2.8-2.1,4.2-3.2c0.4-0.3,0.6-0.8,1.1-1.3c-2.4-2.3-5.5-2-8.2-2.6c-0.3-1,0-1.7,0.8-2.2
				c2.8-1.9,5.8-3,9.3-2.3c3.2,0.6,6.3,1.5,9.3,2.6C89.3,66.1,90,66.5,90.9,67z"/>
			<path d="M73,50.4c-1.1-1.9-1.6-4.1-3.6-5.5c-1.5,1.8-1.5,4.2-2.9,6.2c-0.6-0.6-1.3-1-1.7-1.5c-0.9-1.3-1.3-2.8-0.9-4.5
				c0.7-3.2,1.9-6.1,3.4-9c0.3-0.6,0.7-1.1,1.2-1.7c0.5,0.4,1,0.7,1.3,1.1c2,2.4,3.9,4.9,4.9,7.9c0.6,1.7,0.7,3.4,0.3,5.2
				C74.6,49.7,74.2,50.1,73,50.4z"/>
			<path d="M80.4,60.3c1.3-1.8,3.6-2.4,4.6-4.3c-1.6-1.7-3.9-1.1-5.8-1.9c-0.6-0.7-0.1-1.2,0.4-1.6c1.7-1.4,3.7-2.2,5.9-1.9
				c2.7,0.4,5.3,1.3,8,2.1c0.6,0.2,1.1,0.6,1.8,1.1c-3.3,3.2-6.1,6.6-10.6,7.9C83,62,81.6,61.4,80.4,60.3z"/>
			<path d="M91.5,36.9c-1.1-1.6,0.2-3,0.1-4.6c-0.3-0.7-0.8-0.8-1.5-0.4c-1.1,0.6-2.3,1.1-3.5,1.7c-0.7-0.7-0.6-1.3-0.4-2.1
				c0.5-1.7,1.6-2.9,3-3.8c2.1-1.4,4.4-2.5,7.1-3c0.1,0.4,0.4,0.9,0.4,1.3c0.2,3-0.3,5.9-1.5,8.6C94.4,35.9,93.4,37,91.5,36.9z"/>
			<path d="M81.5,40.8c-1.2-1.3-0.8-3.2-2.2-4.3c-1.6,0.7-2.1,2.4-3.2,3.5c-1.1-1.2-1.3-2.6-1-4.1c0.5-1.9,1.6-3.4,2.7-4.9
				c0.4-0.6,0.9-1.1,1.4-1.6c0.5-0.6,1-0.8,1.8-0.5c1.3,2.1,2,4.4,2.3,6.9c0.2,1.5-0.2,2.9-1,4.2C82.2,40.3,81.8,40.5,81.5,40.8z"/>
			<path d="M87.1,48.3c0.4-1.9,3.2-1.8,2.7-4c-1.2-0.4-2.3-0.8-3.3-1.2c0-1,0.4-1.5,1-1.7c1.4-0.5,2.7-1,4.3-0.5
				c1.4,0.5,2.8,0.7,4.2,1.2c0.6,0.2,1.2,0.6,1.9,1.1c-1.9,2.5-4,4.3-6.5,5.4C90.1,49,88.6,48.9,87.1,48.3z"/>
		</g>
	</g>
</g>
</svg>
